<?xml version="1.0" encoding="utf-8"?>
<svg version="1.1" id="Layer_1" xmlns="http://www.w3.org/2000/svg" xmlns:xlink="http://www.w3.org/1999/xlink" x="0px" y="0px"
	 viewBox="-74 76 50 50" style="enable-background:new -74 76 50 50;" xml:space="preserve">
<path fill="#0090FE" d="M-59.3,125.1c-1-0.7-1.9-1.5-2.6-2.4c-0.8-1-1.5-2-2.2-3c-1.6-2.3-2.8-4.9-3.7-7.6c-1-3.1-1.5-6.1-1.5-9.1
	c0-3.3,0.7-6.1,2.1-8.5c1-1.9,2.5-3.4,4.4-4.5c1.8-1.1,3.8-1.7,5.9-1.8c0.7,0,1.5,0.1,2.4,0.3c0.6,0.2,1.3,0.4,2.2,0.8
	c1.1,0.4,1.8,0.7,2,0.8c0.7,0.2,1.2,0.4,1.7,0.4c0.3,0,0.8-0.1,1.3-0.3c0.3-0.1,0.9-0.3,1.7-0.6c0.8-0.3,1.4-0.5,1.9-0.7
	c0.8-0.2,1.5-0.4,2.2-0.5c0.8-0.1,1.6-0.2,2.4-0.1c1.5,0.1,2.8,0.4,4,0.9c2.1,0.9,3.8,2.2,5.1,4.1c-0.5,0.3-1,0.7-1.5,1.1
	c-1,0.9-1.9,2-2.6,3.1c-0.9,1.6-1.4,3.4-1.3,5.2c0,2.3,0.6,4.2,1.8,6c0.8,1.2,1.9,2.3,3.2,3.2c0.6,0.4,1.2,0.7,1.8,0.9
	c-0.3,0.8-0.5,1.5-0.8,2.3c-0.7,1.7-1.6,3.3-2.6,4.8c-0.9,1.3-1.6,2.3-2.1,2.9c-0.8,1-1.6,1.8-2.5,2.3c-0.9,0.6-1.9,0.9-3,0.9
	c-0.7,0-1.5-0.1-2.2-0.3c-0.6-0.2-1.2-0.4-1.8-0.7c-0.6-0.3-1.2-0.5-1.9-0.7c-0.8-0.2-1.6-0.3-2.4-0.3c-0.8,0-1.6,0.1-2.4,0.3
	c-0.6,0.2-1.3,0.4-1.9,0.7c-0.9,0.4-1.4,0.6-1.8,0.7c-0.7,0.2-1.4,0.3-2.1,0.4C-57.3,126-58.3,125.7-59.3,125.1L-59.3,125.1z
	 M-45,86.6c-1.4,0.7-2.8,1-4.1,0.9c-0.2-1.3,0-2.7,0.6-4.2c0.5-1.3,1.2-2.5,2.1-3.5c1-1.1,2.1-2,3.4-2.6c1.4-0.7,2.7-1.1,3.9-1.1
	c0.2,1.4,0,2.8-0.5,4.3c-0.5,1.3-1.2,2.6-2.1,3.7C-42.6,85.1-43.7,86-45,86.6L-45,86.6z"/>
</svg>
