<?xml version="1.0" encoding="utf-8"?>
<svg version="1.1" id="Layer_1" xmlns="http://www.w3.org/2000/svg" xmlns:xlink="http://www.w3.org/1999/xlink" x="0px" y="0px"
	 viewBox="0 0 50 50" style="enable-background:new 0 0 50 50;" xml:space="preserve">
<g id="XMLID_1_">
	<path fill="#3F484B" d="M23.1,46.3L8.6,37.7c-1.4-0.8-2.3-2.4-2.3-4.1V16.4c0-1.7,0.9-3.3,2.3-4.1l14.5-8.6
		c0.7-0.4,1.5-0.6,2.3-0.6c0.8,0,1.6,0.2,2.3,0.6l14.5,8.6c1.2,0.7,2,1.9,2.2,3.3c-0.5-1-1.6-1.3-2.8-0.6l-13.7,8.5
		c-1.7,1-3,2.1-3,4.2v16.9c0,1.2,0.5,2,1.3,2.3c-0.3,0-0.5,0.1-0.8,0.1C24.5,46.9,23.8,46.7,23.1,46.3 M42.6,11.4L28.1,2.8
		C27.3,2.3,26.3,2,25.3,2c-1,0-1.9,0.3-2.8,0.8L8.1,11.4c-1.7,1-2.8,2.9-2.8,5v17.2c0,2.1,1.1,4,2.8,5l14.5,8.6
		c0.9,0.5,1.8,0.8,2.8,0.8s1.9-0.3,2.8-0.8l14.5-8.6c1.7-1,2.8-2.9,2.8-5V16.4C45.4,14.3,44.4,12.4,42.6,11.4"/>
	<path stroke="#48b350" stroke-width="3" stroke-miterlimit="10" d="M38.8,35.3l-3.6,2.2"/>
	<path fill="#ffffff" d="M31.2,27.3c0.1-0.1,0.2,0,0.2,0.2l0,1.2c0.5-0.2,1-0.3,1.4-0.2c0.1,0,0.1,0.1,0.1,0.3L32.6,30
		c0,0.1-0.1,0.2-0.1,0.2c0,0,0,0-0.1,0.1c0,0-0.1,0-0.1,0c-0.2,0-0.6-0.1-1.3,0.2c-0.7,0.4-1,1-1,1.5c0,0.6,0.3,0.7,1.3,0.8
		c1.3,0,1.9,0.6,1.9,2c0,1.3-0.7,2.7-1.8,3.6l0,1.2c0,0.1-0.1,0.3-0.2,0.4l-0.7,0.4c-0.1,0.1-0.2,0-0.2-0.2l0-1.2
		c-0.6,0.3-1.3,0.3-1.7,0.2c-0.1,0-0.1-0.1-0.1-0.3l0.3-1.1c0-0.1,0.1-0.2,0.1-0.2c0,0,0,0,0.1-0.1c0,0,0.1,0,0.1,0
		c0.4,0.1,1,0.1,1.5-0.2c0.7-0.3,1.1-1,1.1-1.7c0-0.6-0.3-0.9-1.2-0.9c-1.1,0-2-0.2-2.1-1.8c0-1.3,0.7-2.6,1.7-3.4l0-1.2
		c0-0.2,0.1-0.3,0.2-0.4L31.2,27.3z"/>
</g>
</svg>
