<?xml version="1.0" encoding="utf-8"?>
<svg version="1.1" id="Layer_1" xmlns="http://www.w3.org/2000/svg" xmlns:xlink="http://www.w3.org/1999/xlink" x="0px" y="0px"
	 viewBox="0 0 50 50" style="enable-background:new 0 0 50 50;" xml:space="preserve">
<g id="layer1" transform="translate(-193.633,-276.3622)" >
	<g id="g3013" transform="translate(119,276.3622)">
		<polygon fill="#435ba9" points="117.2,10 114,45.9 99.6,49.8 85.3,45.9 82.1,10 		"/>
		<polygon fill="#4667b0" points="111.3,43.6 114,12.9 99.6,12.9 99.6,46.8 		"/>
		<polygon fill="#ebebeb" points="89.4,26.2 89.8,30.6 99.6,30.6 99.6,26.2 		"/>
		<polygon fill="#ebebeb" points="99.6,17.3 99.6,17.3 88.6,17.3 89,21.7 99.6,21.7 		"/>
		<polygon fill="#ebebeb" points="99.6,42.2 99.6,37.7 99.6,37.7 94.7,36.3 94.4,32.8 92,32.8 90,32.8 90.6,39.7 
			99.6,42.2 		"/>
		<path fill="#010101" d="M90.3,0.2h5.3v2.2h-3.1v2.2h3.1v2.2h-5.3V0.2z"/>
		<path fill="#010101" d="M96.7,0.2h5.3v1.9H99v0.4h3.1V7h-5.3V5h3.1V4.6h-3.1V0.2z"/>
		<path fill="#010101" d="M103.1,0.2h5.3v1.9h-3.1v0.4h3.1V7h-5.3V5h3.1V4.6h-3.1V0.2z
			"/>
		<polygon fill="#ffffff" points="105,30.6 104.5,36.3 99.6,37.7 99.6,42.2 108.6,39.7 108.7,39 109.7,27.4 
			109.8,26.2 110.6,17.3 99.6,17.3 99.6,21.7 105.8,21.7 105.4,26.2 99.6,26.2 99.6,30.6 		"/>
	</g>
</g>
</svg>
