<?xml version="1.0" encoding="utf-8"?>
<svg version="1.1" id="Layer_1" xmlns="http://www.w3.org/2000/svg" xmlns:xlink="http://www.w3.org/1999/xlink" x="0px" y="0px"
	 viewBox="0 0 50 50" style="enable-background:new 0 0 50 50;" xml:space="preserve">
<g id="XMLID_2_">
	<path fill="#D61C53" d="M29.9,26.4c-0.8,0,0.2,0.4,1.2,0.6c0.3-0.2,0.6-0.5,0.8-0.7C31.3,26.5,30.6,26.5,29.9,26.4"/>
	<path fill="#D61C53" d="M34.3,25.3c0.5-0.7,0.8-1.4,1-2.2c-0.1,0.5-0.4,1-0.7,1.5c-1.5,1-0.1-0.6,0-1.2
		C33,25.6,34.4,24.7,34.3,25.3"/>
	<path fill="#D61C53" d="M36,21.1c0.1-1.5-0.3-1-0.4-0.4C35.7,20.7,35.8,21.7,36,21.1"/>
	<path fill="#D61C53" d="M26.8,0.7c0.4,0.1,1,0.1,0.9,0.2C28.1,0.9,28.2,0.8,26.8,0.7"/>
	<path fill="#D61C53" d="M27.7,1l-0.3,0.1L27.7,1L27.7,1"/>
	<path fill="#D61C53" d="M41.4,21.6c0,1.3-0.4,2-0.8,3.1l-0.7,0.4c-0.6,1.1,0.1,0.7-0.4,1.6c-0.9,0.8-2.8,2.5-3.4,2.7
		c-0.4,0,0.3-0.5,0.4-0.7c-1.2,0.8-1,1.3-2.8,1.8l-0.1-0.1c-4.6,2.2-11-2.1-10.9-8c0,0.4-0.1,0.3-0.2,0.4c-0.2-3,1.4-6,4.1-7.3
		c2.7-1.3,5.8-0.8,7.8,1c-1.1-1.4-3.2-2.9-5.7-2.7c-2.4,0-4.7,1.6-5.5,3.3c-1.3,0.8-1.4,3-1.9,3.4c-0.7,5.4,1.4,7.7,5,10.5
		c0.6,0.4,0.2,0.4,0.2,0.7c-1.2-0.6-2.3-1.4-3.2-2.4c0.5,0.7,1,1.4,1.6,1.9c-1.1-0.4-2.6-2.7-3.1-2.8c1.9,3.5,7.8,6.1,10.9,4.8
		c-1.4,0.1-3.2,0-4.9-0.6c-0.7-0.3-1.6-1.1-1.4-1.2c4.2,1.6,8.6,1.2,12.2-1.7c0.9-0.7,1.9-2,2.2-2c-0.4,0.7,0.1,0.3-0.3,0.9
		c0.9-1.5-0.4-0.6,1-2.6l0.5,0.7C42,25.5,43.8,24,43.6,22c0.4-0.6,0.4,0.6,0,2c0.6-1.5,0.2-1.8,0.3-3c0.2,0.4,0.4,0.9,0.5,1.3
		C44,20.9,44.8,19.8,45,19c-0.2-0.1-0.6,0.7-0.7-1.1c0-0.8,0.2-0.4,0.3-0.6c-0.1-0.1-0.5-0.7-0.8-1.8c0.2-0.3,0.5,0.7,0.7,0.7
		c-0.2-0.9-0.4-1.6-0.4-2.2c-0.7-1.4-0.2,0.2-0.8-0.6c-0.7-2.3,0.6-0.5,0.7-1.6c1.1,1.6,1.7,4.1,2,5.1c-0.2-1.3-0.6-2.5-1-3.6
		c0.3,0.1-0.5-2.6,0.4-0.8c-1-3.8-4.5-7.4-7.6-9.1c0.4,0.4,0.9,0.8,0.7,0.9c-1.6-0.9-1.3-1-1.5-1.4c-1.3-0.5-1.4,0-2.2,0
		c-2.4-1.3-2.9-1.1-5.1-1.9l0.1,0.5c-1.6-0.5-1.9,0.2-3.6,0c-0.1-0.1,0.6-0.3,1.1-0.4c-1.5,0.2-1.5-0.3-3,0.1
		c0.4-0.3,0.8-0.4,1.2-0.7c-1.3,0.1-3,0.7-2.5,0.1c-2,0.9-5.7,2.2-7.7,4.1l-0.1-0.4c-0.9,1.1-4.1,3.3-4.3,4.8l-0.2,0.1
		c-0.5,0.8-0.8,1.8-1.2,2.6c-0.6,1.1-0.9,0.4-0.8,0.6c-1.3,2.5-1.9,4.7-2.4,6.4c0.4,0.6,0,3.4,0.2,5.7c-0.6,11.3,8,22.4,17.3,24.9
		c1.4,0.5,3.4,0.5,5.2,0.5c-2.1-0.6-2.3-0.3-4.3-1c-1.4-0.7-1.8-1.5-2.8-2.3l0.4,0.7c-2-0.7-1.2-0.9-2.8-1.4l0.4-0.6
		c-0.6,0-1.7-1.1-2-1.7l-0.7,0c-0.9-1.1-1.3-1.8-1.3-2.4l-0.2,0.4c-0.3-0.4-3.1-4-1.6-3.1c-0.3-0.3-0.6-0.4-1-1.1l0.3-0.3
		c-0.7-0.9-1.3-2.1-1.3-2.5c0.4,0.5,0.7,0.6,0.9,0.7c-1.8-4.5-1.9-0.2-3.3-4.6l0.3,0c-0.2-0.3-0.4-0.7-0.5-1.1l0.1-1.3
		c-1.3-1.5-0.4-6.4-0.2-9.1c0.1-1.1,1.1-2.3,1.8-4.1L10.7,15c0.9-1.5,4.9-6,6.7-5.7c0.9-1.1-0.2,0-0.4-0.3c2-2,2.6-1.4,3.9-1.8
		c1.4-0.9-1.2,0.3-0.6-0.3c2.5-0.6,1.8-1.4,5-1.8c0.3,0.2-0.8,0.3-1.1,0.6c2.1-1,6.6-0.8,9.5,0.6c3.4,1.6,7.2,6.2,7.3,10.6l0.2,0
		c-0.1,1.7,0.3,3.8-0.3,5.6L41.4,21.6"/>
	<path fill="#D61C53" d="M20.9,27.5l-0.1,0.6c0.5,0.7,1,1.5,1.7,2.1C22,29.3,21.6,28.9,20.9,27.5"/>
	<path fill="#D61C53" d="M22.2,27.5c-0.3-0.3-0.5-0.7-0.6-1.1c0.2,0.7,0.6,1.2,0.9,1.8L22.2,27.5"/>
	<path fill="#D61C53" d="M44.9,22.6l-0.1,0.3c-0.2,1.6-0.7,3.1-1.4,4.6C44.1,25.9,44.6,24.3,44.9,22.6"/>
	<path fill="#D61C53" d="M26.9,0.4c0.6-0.2,1.4-0.1,2-0.2c-0.8,0.1-1.5,0.1-2.3,0.2L26.9,0.4"/>
	<path fill="#D61C53" d="M7.4,10.8c0.1,1.2-0.9,1.7,0.2,0.9C8.2,10.3,7.3,11.3,7.4,10.8"/>
	<path fill="#D61C53" d="M6,16.3c0.3-0.8,0.3-1.3,0.4-1.7C5.7,15.5,6.1,15.7,6,16.3"/>
</g>
</svg>
