<?xml version="1.0" encoding="utf-8"?>
<svg version="1.1" xmlns="http://www.w3.org/2000/svg" xmlns:xlink="http://www.w3.org/1999/xlink" x="0px" y="0px"
	 viewBox="0 0 500 500" style="enable-background:new 0 0 500 500;" xml:space="preserve">
<path fill="#F6D2A2" d="M77.7,270.3c0.7,14.5,15.2,7.7,21.6,3.2c6.2-4.4,8-0.7,8.6-9.1c0.6-5.6,0.8-11.1,0.7-16.7
	c-9.6-1-19.3,1.5-27.3,7.1C77.3,257.5,70,266.8,77.7,270.3"/>
<path fill="#F6D2A2" d="M366.4,448.2c11.1,6.9,31.5,27.7,14.8,37.8c-16,14.6-25-16.2-39.1-20.4
	C348.1,457.4,355.7,449.8,366.4,448.2L366.4,448.2z"/>
<path fill="#F6D2A2" d="M167.6,471.7c-13.1,2-20.4,13.8-31.3,19.8c-10.3,6-14.2-2-15-3.7c-1.6-0.7-1.4,0.7-3.9-1.8
	c-9.6-15,9.9-26,20-33.5C151.3,449.7,160.1,462,167.6,471.7L167.6,471.7z"/>
<path fill="#F6D2A2" d="M428.1,268.4c-0.7,14.5-15.2,7.7-21.6,3.2c-6.2-4.4-8-0.7-8.6-9.1c-0.6-5.6-0.8-11.1-0.7-16.7
	c9.6-1,19.3,1.5,27.3,7.1C428.4,255.7,435.8,265,428.1,268.4"/>
<path fill="#73CDDA" d="M389.7,91.9c50.2-17.7,11-86.5-32.8-56.1C328.3,11.2,288.8,6.7,247.3,6.7
	C206.6,9.9,168,17.4,141,41c-43.6-28.1-83.8,39.4-32.6,56.4c-14.3,55.7,2,112.5-0.3,169.1c-2.1,50.9-15.5,119.1,12.8,164.8
	c24,39.1,75.8,53,118.4,54.5c54.4,2,120.3-11.4,146.8-64.1c25.3-50.2,18.3-112.8,15-166.9C397.9,200.1,403.9,144.6,389.7,91.9
	L389.7,91.9z"/>
<path fill="#010101" d="M431.9,259.9c-1.6-3.2-3.8-6-6.6-8.2c-6.9-4.7-15-7.3-23.3-7.5c-0.3-8.7-0.6-18.3-0.6-30.4v-11
	c-0.1-34.6-0.6-49.8-2.5-68.7c-1.4-14-3.8-27.9-7.3-41.6c11.4-4.4,18.8-11.5,21.8-20.8c2.8-8.6,1.4-18.3-3.4-26.8
	c-4.8-8.4-12.7-14.6-21.9-17.3c-9.9-2.7-20.5-0.7-30.8,6.2c-9.4-7.8-20-14-31.5-18.2C304.8,7.9,280.5,5,247.4,5v1.4L247.3,5
	c-35.3,2.8-61.4,8.3-83.1,18.8c-8.4,4-16.2,9.1-23.2,15.2c-10.4-6.5-21.2-8-31.2-4.9c-9.4,2.9-17.3,9.4-22.1,18
	c-4.8,8.6-5.9,18.3-2.7,26.8c3.2,8.5,10.7,15,21.8,19.1c-3.6,15-5.5,30.4-5.6,45.8c-0.3,16.2,0.4,29.1,2.9,58.3
	c1.8,21.8,2.5,31.8,2.8,43.9c-9.3-0.6-18.6,2-26.3,7.3c-2.9,2.1-5.1,5-6.6,8.2c-1.8,3.9-1.1,7.5,2.5,9.6c0.6,6.7,4.4,9.9,10.1,9.3
	c4.9-0.8,9.6-2.8,13.6-5.8c0.9-0.7,1.9-1.2,2.9-1.7c0.4-0.1,0.7-0.3,1.1-0.4c0,0,0.8-0.3,1.1-0.4c0.4-0.1,0.8-0.3,1.1-0.6
	c-0.3,6.6-0.8,13.5-2.1,29.2c-1.4,17.7-2.1,27.4-2.4,38.2c-1.3,40.2,3.5,69.5,17.9,92.6c4.5,7.3,10.1,13.9,16.4,19.7
	c-1.3,0.8-6.6,4.8-8.3,6c-5.9,4.5-10,8.3-12.4,12.5c-3.2,5.2-3,11.7,0.4,16.7l0.1,0.1l0.1,0.1c1.6,1.6,2.4,2,3.5,2h0.5
	c0.1,0.3,0.3,0.4,0.4,0.7c0.4,0.6,0.8,1.2,1.3,1.8c3.5,4.1,8.5,5.1,15,1.1c3.5-1.8,6-3.9,11.4-8.5l0.3-0.3c8.6-7.3,12.8-10,19.1-11
	l2.2-0.4c0.8,0.4,1.7,0.7,2.7,1.1c20,8,43.2,12.4,66.6,13.2c30.4,1.1,59.6-2.7,84.4-11.7c6.4-2.3,12.7-5.1,18.7-8.3
	c3.7,1.4,6.7,4.4,12.7,11.3c0.2,0.1,0.3,0.3,0.4,0.6c0.3,0.3,0.3,0.4,0.4,0.6c0.3,0.4,0.7,0.7,1,1.1c4.6,5.5,7.7,8.2,11.3,9.7
	c4.6,2,9.1,1,13.8-3.2c8.2-5.1,8.7-12.9,3.4-21.9c-4.4-6.8-10.1-12.6-16.7-17.1c7.5-7.4,13.8-16,18.6-25.4
	c13.5-27,18.7-58.5,18.3-99c-0.1-14.3-0.7-26.8-2.2-50.8v-0.7c0.8,0.3,1.5,0.7,2.1,1.3c4.4,2.9,9.4,5.3,13.6,5.8
	c5.8,0.6,9.6-2.5,10.1-9.3l0,0C433,267.3,433.7,263.8,431.9,259.9L431.9,259.9z M387.2,30.6c8.6,2.4,15.9,8.2,20.2,16
	c4.5,7.4,5.7,16.3,3.2,24.6c-2.7,8.3-9.4,14.9-20,18.8c-2.1-7.5-4.6-14.9-7.5-22.2c4.1-3.5,6-7.9,2.8-14.1
	c-3.2-6.2-8.9-6.9-14.6-5.1c-3.6-4.6-7.6-8.9-12-12.9C368.8,29.9,378.3,28.2,387.2,30.6L387.2,30.6z M87.4,78.1
	c-2.9-7.6-2-16.6,2.5-24.5c4.4-8,11.8-13.9,20.5-16.6c9-2.7,18.7-1.4,28.2,4.2c-5.5,5-10.4,10.6-14.6,16.7c-7.3-3.8-14.8-4.5-19,3.2
	c-4.4,8.3,0.7,13.5,7.9,17.4c-1,2.4-2,4.9-2.8,7.5c-1,3.1-2,6.3-2.8,9.6C97.1,91.7,90.4,85.7,87.4,78.1z M104.5,269.7
	c-0.1,0-1,0.3-1,0.4c-0.4,0.1-0.9,0.3-1.3,0.6c-1.2,0.5-2.3,1.2-3.4,2c-3.6,2.7-7.9,4.5-12.4,5.2c-4.2,0.4-6.6-1.4-7.1-6.5
	c2.9-1,4.2-1.7,5.3-3.4l-2.2-1.7c-0.8,1.1-1.7,1.6-4.2,2.4l0,0c-0.1,0-0.1,0-0.3,0.1c-2.2-1.3-2.7-3.2-1.4-6
	c1.4-2.8,3.3-5.2,5.8-7.1c7.2-5,16-7.4,24.7-6.7c0,3.5,0.1,7.1,0,10.4c0,0.4,0,0.8-0.1,1.1c-0.1,2-0.1,2.8-0.3,3.8l0,0
	C106.2,268.4,105.9,269,104.5,269.7L104.5,269.7z M146.9,481.8l-0.3,0.3c-3.3,3.1-7,5.8-11,8.2c-5.3,3.2-9,2.5-11.5-0.6
	c-0.4-0.4-0.7-0.9-1-1.4c-0.1-0.1-0.3-0.4-0.4-0.6v-0.1c0.3-2.5,1.3-4.4,3.8-8.3c0.1-0.1,0.1-0.1,0.1-0.3c1.1-1.6,2.1-3.3,2.9-5.1
	l-2.5-1.1c-0.8,1.6-1.7,3.2-2.7,4.7c-0.1,0.1-0.1,0.1-0.1,0.3c-2,2.5-3.4,5.4-4.2,8.5h-0.6c-0.5-0.3-0.9-0.6-1.3-1
	c-5.5-8.7-1.1-16.2,11.3-25.4c1.6-1.1,6.7-4.8,8.2-5.9c0.3,0,0.6-0.1,0.8-0.3c8,6.7,16.8,12.3,26.3,16.7l0,0c0,0.1,0.1,0.3,0.3,0.4
	C159.3,472.2,154.8,475.2,146.9,481.8L146.9,481.8z M382.9,466.5c4.4,7.3,4.2,13.2-1.3,17.3c-0.4-0.8-0.7-1.8-1.3-3.2
	c0-0.1,0-0.1-0.1-0.3c-2-5.3-3.2-7.6-5.6-10.1l-2,2c2.1,2,3.1,4.1,5.1,9c0,0.1,0,0.1,0.1,0.3c0.7,1.8,1.1,2.9,1.6,3.9
	c-3.7,3.1-6.9,3.7-10.3,2.1c-2.9-1.3-5.8-3.9-10.3-9c-0.3-0.3-0.6-0.7-0.8-1.1c-0.2-0.2-0.3-0.4-0.4-0.6c-0.2-0.1-0.3-0.3-0.4-0.6
	c-5.2-6-8.3-9.3-11.7-11.1c7.6-4.3,14.7-9.5,21.2-15.5C372.6,453.9,379.2,460.4,382.9,466.5L382.9,466.5z M384.9,421
	c-12.1,24.3-33.5,41.5-62.1,51.9c-24.5,8.9-53.4,12.5-83.4,11.4c-51.6-1.8-96.3-19.8-117.3-53.8c-14.1-22.6-18.7-51.5-17.4-91.1
	c0.4-10.8,1-20.5,2.4-38.2c1.6-20,2-25.7,2.4-34.7c0.3-6.5,0.3-13.1,0.1-20.1c-0.3-12.4-1-22.2-2.8-44.3c-2.5-29.3-3.3-42-3-58.1
	c0.4-21.1,3.2-39.6,9.1-57.2c9.6-28.5,27.1-47.8,52.4-60.3c21.2-10.4,47-15.8,82-18.6c32.8,0,56.7,2.9,77.3,10.5
	c24.7,9.1,43.2,25.2,55.8,49.8c8.2,20,12.9,41.5,15.5,66.2c2,18.8,2.4,34,2.5,68.5v11c0.1,17,0.4,29,1.1,40.9
	c0.3,4.6,0.4,6.6,1.1,17.7c1.6,23.9,2.1,36.3,2.2,50.6C403.4,363.4,398.3,394.4,384.9,421L384.9,421z M427.9,267L427.9,267
	c-0.1,0-0.3-0.1-0.4-0.1c-1.6-0.3-3.1-1.2-4.2-2.4l-2.2,1.7c1.3,1.7,2.5,2.4,5.3,3.4c-0.6,5.1-2.9,6.9-7.1,6.5
	c-3.7-0.3-8.5-2.5-12.4-5.2c-1.1-0.8-2.2-1.4-3.4-2c-0.1,0-0.3-0.1-0.4-0.1c-0.6-7.7-0.6-9.7-0.8-13.8l-0.4-7.6
	c7.7,0,15.2,2.4,21.5,6.9c2.4,1.9,4.4,4.3,5.8,7.1C430.6,263.7,430.3,265.8,427.9,267L427.9,267z"/>
<path fill="#FFFFFF" d="M268.6,151.7c0.1,7.2,1.6,15,0.3,22.6c-2,3.7-5.6,4.1-8.9,5.5c-4.5-0.7-8.3-3.7-10.1-7.9
	c-1.1-8.6,0.3-16.7,0.7-25.3c0-0.3,5.3,0.1,10.1,1.6C263.5,148.9,266.1,150.1,268.6,151.7L268.6,151.7z"/>
<path fill="#FFFFFF" d="M228.8,152.2c-3.9,14.9,5.2,39.2,20.2,19.3c-1.1-8.5,0.1-16.6,0.6-24.9
	C249.8,145.9,229,151.2,228.8,152.2L228.8,152.2z"/>
<path fill="#010101" d="M270.3,158.3c-0.3-4.2-0.4-5.9-0.4-8v-1l-1-0.3l-17.7-5.5v-1l-1.8,0.4h-0.1v0.1l-20,5.1
	l-0.7,0.1l-0.3,0.7c-3.1,7.5-2.4,18.7,1.6,25.6c4.5,7.9,11.8,8,19.3-1c2.1,4.1,6,6.9,10.5,7.6h0.4l0.4-0.1c0.6-0.3,1.1-0.4,2.1-0.8
	c0.1,0,0.1,0,0.3-0.1c4.1-1.4,5.8-2.5,7.2-5.2l0.1-0.1v-0.3c0.4-2.7,0.6-5.4,0.6-8.2C270.7,164.2,270.5,162.2,270.3,158.3
	L270.3,158.3z M247.8,153.1c-0.1,2.5-0.3,3.5-0.4,4.9c-0.3,4.4-0.3,8.7,0.1,13.1c-6.6,8.5-11.8,8.5-15.3,2.1
	c-3.4-5.9-4.1-15.9-1.6-22.5l17.7-4.5C248.2,148,248.1,149.8,247.8,153.1L247.8,153.1z M267.5,173.9c-1,1.7-2.2,2.5-5.6,3.7
	c-0.1,0-0.1,0-0.3,0.1c-0.8,0.3-1.4,0.6-1.8,0.7c-3.8-0.7-7-3.2-8.6-6.7c-0.4-4.3-0.5-8.6-0.1-12.9c0.1-1.4,0.1-2.4,0.4-4.9
	c0.3-3.2,0.4-5.2,0.4-7.1l15.3,4.6c0,1.8,0.1,3.5,0.4,7.2c0.3,3.7,0.4,5.8,0.4,8C268.1,169,267.9,171.4,267.5,173.9L267.5,173.9z"/>
<path fill="#FFFFFF" d="M144.2,90.4c12.9,50.3,93.5,37.4,90.3-13.1C230.9,16.9,131.8,28.6,144.2,90.4"/>
<path fill="#010101" d="M236,77.2c-0.8-14.6-7.3-26-18-33.2c-9.6-6.5-22.2-9-34.7-7.5c-12.5,1.6-24,7.3-31.7,16.1
	c-8.5,9.9-11.7,22.8-8.7,37.7l1.3-0.3l-1.3,0.3C156.1,142.1,239,129.6,236,77.2L236,77.2z M145.5,90.1c-2.8-14.2,0.3-26.3,8.2-35.4
	c7.2-8.3,18-13.8,29.9-15.3c12-1.6,23.9,0.8,32.9,7.1c10,6.7,16,17.3,16.9,31.2C236.3,126.7,158,138.5,145.5,90.1z"/>
<ellipse fill="#010101" cx="166.4" cy="82.1" rx="13.6" ry="14.8"/>
<ellipse fill="#FFFFFF" cx="172.6" cy="85.5" rx="3.2" ry="3.8"/>
<path fill="#FFFFFF" d="M257.2,81c10,57.8,104.4,42.5,90.8-15.8C335.7,12.9,253.8,27.4,257.2,81"/>
<path fill="#010101" d="M349.2,65c-12.5-53.8-96.9-39.1-93.5,16.2v0.1c4.6,27.3,29,41.2,55.8,36.7
	c12.2-2.1,23.2-8,30.4-16.7C349.8,91.6,352.6,79,349.2,65L349.2,65z M339.8,99.5c-6.8,8.2-17,13.8-28.7,15.8
	c-25.4,4.2-48.2-8.9-52.7-34.4c-3.1-52,76.5-65.9,88.3-15.3C349.8,78.9,347.3,90.6,339.8,99.5L339.8,99.5z"/>
<ellipse fill="#010101" cx="280.4" cy="78.5" rx="13.4" ry="14.8"/>
<ellipse fill="#FFFFFF" cx="286.5" cy="81.8" rx="3.1" ry="3.8"/>
<path fill="#F6D2A2" d="M231.7,121.8c-11.1,1-20.1,14.1-14.3,24.5c7.6,13.8,24.6-1.3,35.1,0.1
	c12.2,0.3,22.2,12.9,31.9,2.2c10.8-11.8-4.6-23.3-16.9-28.4L231.7,121.8z"/>
<path fill="#231F20" d="M285.8,131.3c-3.8-4.8-10.4-9.1-17.6-12.1L268,119h-0.3l-36,1.4c-12.5,1.1-21.5,15.6-15.5,26.6
	c1.9,3.9,5.7,6.4,10,6.6c3.2,0.1,6.6-0.6,11.8-2.4c0.4-0.1,1-0.3,1.7-0.6c7.1-2.4,9.9-3.1,12.7-2.7h0.1c3.4,0,6.2,1,11.5,3.1
	c5.9,2.4,7.7,3.1,10.7,3.4c4.1,0.3,8.2-1.4,10.8-4.6C291,143.8,290.8,137.3,285.8,131.3L285.8,131.3z M283.4,147.9
	c-2.1,2.6-5.3,4-8.6,3.8c-2.5-0.1-4.2-0.8-9.9-3.1c-5.6-2.2-8.7-3.2-12.4-3.4c-3.5-0.4-6.5,0.3-13.9,2.8c-0.7,0.3-1.3,0.4-1.7,0.6
	c-10.3,3.5-15.2,3.2-18.6-2.9c-5.1-9.1,2.7-21.5,13.2-22.5l35.6-1.4c6.7,2.8,12.8,6.9,16.3,11.3
	C287.8,138.1,287.9,143.1,283.4,147.9L283.4,147.9z"/>
<path fill="#010101" d="M270.4,115.8c-4.4-16-40.9-13.6-40.1,5.5C232.1,135.5,274.6,131.7,270.4,115.8z"/>
</svg>
