<?xml version="1.0" encoding="utf-8"?>
<svg version="1.1" id="Layer_1" xmlns="http://www.w3.org/2000/svg" xmlns:xlink="http://www.w3.org/1999/xlink" x="0px" y="0px"
	 viewBox="0 0 50 50" style="enable-background:new 0 0 50 50;" xml:space="preserve">
<style type="text/css">
	.st1{fill:url(#gradientgrey);}
	.st2{fill:url(#gradientread);}
</style>
<g id="XMLID_1_">
	<path fill="#010101" opacity="0.1" d="M26.5,3.1c0,0.1,0,0.2,0,0.3c0,0,0.3,1.8,0,2.7L13,40.9c-1,2.6,0.3,5.4,2.9,6.4
		c2.6,1,5.4-0.3,6.4-2.8L35.7,9.6c0.3-0.7,1.8-2,1.8-2c0.1-0.1,0.1-0.1,0.2-0.2v0c0,0,0,0,0,0c0.3-0.9-1.9-2.6-5-3.8
		C29.6,2.4,26.8,2.2,26.5,3.1C26.5,3.1,26.5,3.1,26.5,3.1z"/>
	
	<linearGradient id="gradientgrey" gradientUnits="userSpaceOnUse" x1="-2.4016" y1="50.9787" x2="-2.3816" y2="50.9745" gradientTransform="matrix(561.0149 0 0 -1011.5933 1365.6429 51592.7188)">
		<stop  offset="0" style="stop-color:#919191"/>
		<stop  offset="1" style="stop-color:#FFFFFF"/>
	</linearGradient>
	<path class="st1" d="M26.1,2.8c0,0.1,0,0.2,0,0.3c0,0,0.3,1.8,0,2.7L12.7,40.6c-1,2.6,0.3,5.4,2.9,6.4
		s5.4-0.3,6.4-2.8L35.3,9.3c0.3-0.7,1.8-2,1.8-2c0.1-0.1,0.1-0.1,0.2-0.2v0c0,0,0,0,0,0c0.3-0.9-1.9-2.6-5-3.8
		C29.2,2.1,26.4,1.9,26.1,2.8C26.1,2.8,26.1,2.8,26.1,2.8L26.1,2.8z"/>
	
	<linearGradient id="gradientread" gradientUnits="userSpaceOnUse" x1="-4.1854" y1="51.5512" x2="-4.1673" y2="51.547" gradientTransform="matrix(373.6914 0 0 -614.1079 1582.0792 31688.1953)">
		<stop  offset="0" style="stop-color:#991B1E"/>
		<stop  offset="1" style="stop-color:#E61E25"/>
	</linearGradient>
	<path class="st2" d="M30.3,18.6l-9.7,25.1c-0.7,1.8-2.8,2.7-4.6,2c-1.8-0.7-2.8-2.8-2.2-4.6L20,25
		c0,0,0.8-1.2,2.3-2.1c1.5-0.9,2.8-0.7,4.4-1.4C28.4,20.7,30.3,18.6,30.3,18.6L30.3,18.6z"/>
	<path fill="#333333" d="M35,6.4c0.2-0.5-1.2-1.5-3.1-2.2c-1.9-0.7-3.6-0.9-3.8-0.4c-0.2,0.5,1.2,1.5,3.1,2.2
		C33.1,6.7,34.8,6.9,35,6.4L35,6.4z"/>
	<path fill="#ffffff" opacity="0.5" d="M26,3.1c0,0,0.3,1.8,0,2.7L12.6,40.5c-0.9,2.6,0.3,5.4,2.9,6.4c0.4,0.2,0.9,0.3,1.3,0.3
		c-1.7-1.3-2.4-3.7-1.7-5.7l13-34C28.2,7.4,26.4,5.7,26,3.1L26,3.1z"/>
	<g opacity="0.5" transform="translate(420.01 104.5)">
		<ellipse id="XMLID_6_" class="st6" cx="-398.3" cy="-79" rx="0.4" ry="0.4"/>
		<ellipse id="XMLID_5_" class="st6" cx="-395.8" cy="-76.2" rx="0.6" ry="0.6"/>
		<ellipse id="XMLID_4_" class="st6" cx="-399.6" cy="-72.9" rx="1.1" ry="1.1"/>
		<ellipse id="XMLID_3_" class="st6" cx="-401.4" cy="-70.8" rx="0.6" ry="0.6"/>
		<ellipse id="XMLID_2_" class="st6" cx="-399.1" cy="-66.5" rx="0.4" ry="0.4"/>
	</g>
</g>
</svg>