<?xml version="1.0" encoding="utf-8"?>
<svg version="1.1" id="JavaScript-Icon" xmlns="http://www.w3.org/2000/svg" xmlns:xlink="http://www.w3.org/1999/xlink" x="0px" y="0px"
	 viewBox="0 0 50 50" style="enable-background:new 0 0 50 50;" xml:space="preserve">
<g id="js" transform="translate(119,276.3622)">
	<polygon fill="#63a814" points="-76.4,-266.4 -79.6,-230.5 -94,-226.6 -108.3,-230.5 -111.5,-266.4 	"/>
	<polygon fill="#8acf17" points="-82.3,-232.8 -79.6,-263.5 -94,-263.5 -94,-229.6 	"/>
	<polygon fill="#ebebeb" points="-94,-259.1 -94,-259.1 -105,-259.1 -104.6,-254.7 -94,-254.7 	"/>
	<polygon fill="#ebebeb" points="-94,-234.2 -94,-238.7 -94,-238.7 -98.9,-240.1 -99.2,-243.6 -101.6,-243.6 -103.6,-243.6 -103,-236.7"/>
	<polyline fill="#ffffff" points="-88.6,-245.8 -89.1,-240.1 -94,-238.7 -94,-234.2 -85,-236.7 -84.9,-237.4 -83.9,-249 -83.8,-250.2 -83,-259.1 -94,-259.1 -94,-254.7 -87.8,-254.7 -88.2,-250.2"/>
	<path fill="" class="st4" d="M-93.9-276.2h5.3v1.9h-3v0.4h3.1v4.5h-5.3v-2h3.1v-0.4h-3.1L-93.9-276.2L-93.9-276.2z"/>
	<polygon fill="#010101" points="-97.2,-276.2 -97.2,-271.8 -100.3,-271.8 -100.3,-269.6 -97.2,-269.6 -95,-269.6 -95,-271.8 -95,-276.2"/>
</g>
</svg>
