<?xml version="1.0" encoding="utf-8"?>
<svg version="1.1" id="Layer_1" xmlns="http://www.w3.org/2000/svg" xmlns:xlink="http://www.w3.org/1999/xlink" x="0px" y="0px"
	 viewBox="0 0 50 50" style="enable-background:new 0 0 50 50;" xml:space="preserve">
<path fill="#f7f8f8" d="M32.6,21c0-1.2-1.4-1.9-2.3-1.1c-2.7,2.2-2.8,3.7-5.1,3.7c-2.3,0-2.3-1.4-5.1-3.7
	c-0.9-0.7-2.3-0.1-2.3,1.1c0,4.7-3.4,5.6-3.4,11.1c0,0.5,0.2,0.9,0.6,1.2c0.1,0,0.2,0.1,0.2,0.6c0.3,6.4,3.3,9.1,0.9,11.6
	c-0.7,0.7-0.5,1.9,0.4,2.3c2.2,1,5.3,1.6,8.6,1.6c3.3,0,6.5-0.6,8.6-1.6c0.9-0.4,1.1-1.6,0.4-2.3c-2.4-2.5,0.6-5.2,0.9-11.6
	c0-0.4,0.2-0.5,0.2-0.6c0.4-0.3,0.6-0.7,0.6-1.2C36,26.6,32.6,25.7,32.6,21z"/>
<path fill="#e0e1e0" d="M32.6,21c0-1.2-1.4-1.9-2.3-1.1c-2.7,2.2-2.8,3.7-5.1,3.7v25.8c3.3,0,6.5-0.6,8.6-1.6
	c0.9-0.4,1.1-1.6,0.4-2.3c-2.4-2.5,0.6-5.2,0.9-11.6c0-0.4,0.2-0.5,0.2-0.6c0.4-0.3,0.6-0.7,0.6-1.2C36,26.6,32.6,25.7,32.6,21z"/>
<path fill="2b4b4b" d="M39.1,13C38.7,5.1,33,0.6,25.2,0.6c-7.8,0-13.6,4.5-13.9,12.3c-0.4,9.5-7,13.8-2.9,22.8
	c0.6,1.3,4.6,2.1,4.3-1.2c-0.1-1.3,1.8-1.8,2.4-1.4c0.9,0.7,2.3,0,2.3-1.2c0-4.5,3.4-5.4,3.4-11.1c0-0.4-0.2-0.8-0.5-1.1
	c-0.5-0.4-1-0.8-1.7-1.3c0.4-0.1,0.9-0.2,1.3-0.3c1.1-0.2,1.5-1.6,0.7-2.4c-0.6-0.6-0.9-1.5-0.9-2.5c0-1.4,0.7-2.9,1.7-2.9
	c1,0,1.7,1.5,1.7,2.9c0,0.7-0.1,1.3-0.4,1.8c-1.2,0.8-0.6,2.7,0.9,2.6c1.1-0.1,2.2-0.1,3.4,0c1.5,0.1,2.1-1.8,0.9-2.6
	c-0.3-0.5-0.4-1.1-0.4-1.8c0-1.4,0.7-2.9,1.7-2.9c1,0,1.7,1.5,1.7,2.9c0,1-0.3,2-0.9,2.5c-0.8,0.8-0.4,2.2,0.7,2.4
	c0.5,0.1,0.9,0.2,1.3,0.3c-0.6,0.5-1.2,0.9-1.7,1.3c-0.3,0.3-0.5,0.7-0.5,1.1c0,5.7,3.4,6.6,3.4,11.1c0,1.2,1.3,1.8,2.3,1.2
	c0.6-0.4,2.5,0.1,2.4,1.4c-0.3,3.3,3.7,2.5,4.3,1.2C46.1,26.8,39.5,22.5,39.1,13z"/>
<path fill="#1c2323" d="M39.1,13C38.7,5.1,33,0.6,25.2,0.6v17.2c0.5,0,1.1,0,1.7,0.1c1.5,0.1,2.1-1.8,0.9-2.6
	c-0.3-0.5-0.4-1.1-0.4-1.8c0-1.4,0.7-2.9,1.7-2.9s1.7,1.5,1.7,2.9c0,1-0.3,2-0.9,2.5c-0.8,0.8-0.4,2.2,0.7,2.4
	c0.5,0.1,0.9,0.2,1.3,0.3c-0.6,0.5-1.2,0.9-1.7,1.3c-0.3,0.3-0.5,0.7-0.5,1.1c0,5.7,3.4,6.6,3.4,11.1c0,1.2,1.3,1.8,2.3,1.2
	c0.6-0.4,2.5,0.1,2.4,1.4c-0.3,3.3,3.7,2.5,4.3,1.2C46.1,26.8,39.5,22.5,39.1,13z"/>
<path fill="#f7f8f8" d="M29.1,7.7c-1.7,0-3.1,1.1-3.9,2.7c-0.8-1.6-2.2-2.7-3.9-2.7c-2.5,0-4.6,2.5-4.6,5.8
	c0,1.8,0.6,3.4,1.7,4.5c0.3,0.3,0.8,0.5,1.3,0.4c1.3-0.3,2.4-0.4,3.9-0.5c0.4,0,0.8-0.3,1.1-0.6c0.2-0.2,0.3-0.5,0.4-0.7
	c0.1,0.3,0.3,0.5,0.4,0.7c0.2,0.4,0.6,0.6,1.1,0.6c1.5,0.1,2.6,0.3,3.9,0.5c0.5,0.1,1-0.1,1.3-0.4c1.1-1.1,1.7-2.7,1.7-4.5
	C33.7,10.1,31.6,7.7,29.1,7.7z"/>
<path fill="#e0e1e0" d="M29.1,7.7c-1.7,0-3.1,1.1-3.9,2.7v6.1c0.1,0.3,0.3,0.5,0.4,0.7c0.2,0.4,0.6,0.6,1.1,0.6
	c1.5,0.1,2.6,0.3,3.9,0.5c0.5,0.1,1-0.1,1.3-0.4c1.1-1.1,1.7-2.7,1.7-4.5C33.7,10.1,31.6,7.7,29.1,7.7z"/>
<path fill="#ffd664" d="M18.1,33.7c-0.2-3.2-3.5-4.3-6.2-2.8c-1.1,0.7-1.9,1.7-2.1,2.8c-1.2-0.5-3.3-1.1-4.9,0.6
	C3.3,36,3.8,38,4.3,39.2c-2.8,0.5-4.2,4-3.1,6.3c0.6,1.1,1.7,1.8,3,1.9c4.2,0.2,6.9,1.9,9.6,1.9c1.5,0,2.9-0.5,4.3-1.9
	C22,43.4,18.4,39.8,18.1,33.7z"/>
<path fill="#f89747" d="M46.1,39.2c0.5-1.3,1-3.3-0.6-4.9c-1.6-1.6-3.7-1-4.9-0.6c-0.2-1.2-1-2.2-2.1-2.8
	c-2.7-1.5-6-0.4-6.2,2.8c-0.3,6.2-4,9.8,0,13.8c1.4,1.4,2.8,1.8,4.2,1.8c2.7,0,5.4-1.7,9.6-1.9h0c1.4-0.1,2.5-0.8,3-1.9
	C50.3,43.3,48.9,39.8,46.1,39.2z"/>
<path fill="#ffd664" d="M32.7,15.9c-5-1.2-9.8-1.3-15,0c-2.4,0.6-3,3.7-1,5.1c1.9,1.3,2.4,1.9,3.3,2.8
	c1.2,1.3,2.4,2.6,5.1,2.6s3.9-1.3,5.1-2.6c0.9-0.9,1.4-1.5,3.3-2.8C35.6,19.6,35,16.5,32.7,15.9z"/>
<path fill="#f89747" d="M32.7,15.9c-2.5-0.6-5-0.9-7.5-0.9v11.5c2.7,0,3.9-1.3,5.1-2.6c0.9-0.9,1.4-1.5,3.3-2.8
	C35.6,19.6,35,16.5,32.7,15.9z"/>
<circle fill="#1c2323" cx="29.3" cy="12.3" r="1.5"/>
<circle fill="2b4b4b" cx="21.1" cy="12.3" r="1.5"/>
</svg>
