<?xml version="1.0" encoding="utf-8"?>
<svg version="1.1" id="Layer_1" xmlns="http://www.w3.org/2000/svg" xmlns:xlink="http://www.w3.org/1999/xlink" x="0px" y="0px"
	 viewBox="-74 76 50 50" style="enable-background:new -74 76 50 50;" xml:space="preserve">
<g id="XMLID_1_">
	<path fill="#0090FE" id="XMLID_38_" class="st0" d="M-27.4,99.8c0,11.9-9.6,21.7-21.7,21.6c-11.9,0-21.5-9.6-21.5-21.6c0-11.9,9.7-21.7,21.8-21.6
		C-37,78.3-27.5,87.9-27.4,99.8z M-56.3,101.7c0-0.1-0.1-0.2-0.2-0.2c-0.2-0.3-0.5-0.6-0.7-0.9c0-0.1-0.1-0.2-0.2-0.3
		c-0.1-0.1-0.1-0.2-0.2-0.3c0,0,0,0,0-0.1c-0.5-0.8-1-1.6-1.4-2.4c-0.3-0.6-0.6-1.2-0.9-1.8c-0.2-0.7-0.5-1.3-0.7-2
		c-0.3-0.9-0.5-1.9-0.7-2.8c-0.1-0.7-0.2-1.4-0.2-2.2c0-0.2,0-0.3,0-0.5c-0.4,0.7-0.6,1.3-0.8,1.9c-0.2,0.8-0.4,1.6-0.5,2.4
		c-0.1,0.8-0.1,1.7,0,2.5c0,0.8,0.2,1.6,0.3,2.4c0.2,0.9,0.5,1.8,0.8,2.7c0.4,1,0.9,1.9,1.4,2.8c0.8,1.3,1.6,2.5,2.6,3.6
		c0.7,0.7,1.3,1.4,2.1,2c0.8,0.7,1.8,1.4,2.7,1.9c0.8,0.5,1.6,0.9,2.5,1.3c0.7,0.3,1.4,0.5,2.2,0.8c0.7,0.2,1.5,0.4,2.2,0.5
		c0.5,0.1,1.1,0.2,1.7,0.2c0.7,0,1.4,0,2.2-0.1c0.5-0.1,1-0.1,1.5-0.2c0.8-0.2,1.5-0.4,2.2-0.7c0.3-0.2,0.7-0.3,1-0.5
		c0,0-0.1,0-0.1,0c-0.5,0-1,0-1.5-0.1c-0.7,0-1.5-0.2-2.2-0.3c-1-0.2-2-0.5-2.9-0.8c-1.2-0.4-2.3-0.9-3.4-1.5
		c-0.5-0.2-0.9-0.5-1.3-0.8s-0.9-0.5-1.3-0.8c-0.5-0.4-1-0.7-1.5-1.1c-0.4-0.3-0.8-0.7-1.3-1c-0.1-0.1-0.2-0.2-0.3-0.3
		c-0.3-0.3-0.6-0.6-0.9-0.9C-54.8,103.3-55.6,102.6-56.3,101.7z M-35.7,105.1c-0.1,0-0.2,0-0.4,0c-0.8,0-1.5-0.1-2.3-0.2
		c-1.1-0.2-2.2-0.5-3.2-0.9c-0.7-0.2-1.3-0.6-1.9-0.8c-0.6-0.3-1.1-0.6-1.6-1c-0.4-0.3-0.9-0.6-1.3-0.9c-0.3-0.2-0.7-0.5-1-0.8
		c-0.4-0.3-0.8-0.7-1.2-1.1c-1-0.9-1.9-2-2.7-3.1c-0.3-0.5-0.7-1-0.9-1.5c-0.2-0.5-0.5-0.9-0.8-1.4c-0.2-0.2-0.2-0.5-0.3-0.8
		c-0.1-0.3-0.3-0.6-0.4-0.9s-0.2-0.6-0.3-0.9c-0.1-0.4-0.3-0.9-0.4-1.3c-0.1-0.4-0.2-0.8-0.2-1.1c-0.1-0.4-0.1-0.8-0.1-1.2
		c-0.1-0.3,0-0.7-0.1-1.1c-0.3,0.6-0.5,1.1-0.6,1.7c-0.2,0.8-0.4,1.6-0.4,2.4c0,0.8,0,1.5,0.1,2.2c0.1,0.9,0.3,1.8,0.6,2.7
		c0.3,0.8,0.6,1.7,1.1,2.4c0.5,1,1.1,1.9,1.9,2.7c0.7,0.8,1.5,1.6,2.3,2.3c0.8,0.7,1.7,1.3,2.6,1.8c0.9,0.5,1.9,0.9,2.9,1.2
		c1,0.3,2,0.5,3,0.6c1,0.1,2,0,3-0.1c0.7-0.1,1.4-0.3,2-0.6C-36.2,105.4-35.9,105.3-35.7,105.1z"/>
</g>
</svg>
