<?xml version="1.0" encoding="utf-8"?>
<svg version="1.1" id="Layer_1" xmlns="http://www.w3.org/2000/svg" xmlns:xlink="http://www.w3.org/1999/xlink" x="0px" y="0px"
	 viewBox="0 0 50 50" style="enable-background:new 0 0 50 50;" xml:space="preserve">
<g transform="translate(0,85)">
	<path fill="#010101" fill-opacity="0.1961" d="M42.6-62.2c1.7,11.9-5.9,22.8-16.9,24.4c-11,1.5-21.3-6.9-22.9-18.8S8.7-79.4,19.7-81
		S40.9-74.1,42.6-62.2z"/>
	<g transform="matrix(1.601426,-0.225748,0.243127,1.735181,3.772378,-68.97163)">
		<path fill="#f58045" d="M25.1,6.9c0,6.9-5.6,12.4-12.4,12.4S0.2,13.7,0.2,6.9S5.8-5.6,12.6-5.6S25.1,0,25.1,6.9z"/>
		<path fill="#faf285" d="M22.6,6.9c0,5.5-4.5,9.9-9.9,9.9s-9.9-4.5-9.9-9.9s4.5-9.9,9.9-9.9S22.6,1.4,22.6,6.9L22.6,6.9
			z"/>
		<g transform="translate(0,2.5)">
			<polygon fill="#f58045" points="11.6,-3.7 13.6,-3.7 13.6,8.7 11.6,8.7 			"/>
			<rect x="11.6" y="10.5" class="st1" width="2" height="2"/>
		</g>
	</g>
</g>
</svg>
