<?xml version="1.0" encoding="utf-8"?>
<svg version="1.1" id="Layer_1" xmlns="http://www.w3.org/2000/svg" xmlns:xlink="http://www.w3.org/1999/xlink" x="0px" y="0px"
	 viewBox="0 0 50 50" style="enable-background:new 0 0 50 50;" xml:space="preserve">
<style type="text/css">
	.st0{opacity:0.4;}
	.st1{fill:url(#rect2801_1_);}
	.st2{fill:url(#rect3696_1_);}
	.st3{fill:url(#rect3700_1_);}
	.st4{fill:url(#rect15391_1_);stroke:url(#rect15391_2_);stroke-linecap:round;stroke-linejoin:round;}
	.st5{fill:none;stroke:url(#rect15660_1_);stroke-linecap:round;stroke-linejoin:round;}
	.st6{opacity:0.3571;fill:url(#path5348_1_);enable-background:new    ;}
	.st7{fill:url(#path2210_1_);stroke:url(#path2210_2_);stroke-linejoin:round;}
	.st8{fill:none;stroke:url(#path2247_1_);stroke-width:1;}
	.st9{opacity:0.511;}
	.st10{fill:#8E8D8D;}
	.st11{opacity:0.8326;fill:url(#path4112_1_);enable-background:new    ;}
	.st12{fill:#5F66AE;stroke:#3E4485;stroke-linecap:round;stroke-linejoin:round;}
	.st13{fill:none;stroke:#9CA1D0;stroke-width:1.1785;stroke-linecap:round;stroke-linejoin:round;}
	.st14{opacity:0.5581;fill:url(#path19720_1_);enable-background:new    ;}
	
		.st15{opacity:0.6996;fill:none;stroke:url(#path19724_1_);stroke-width:2;stroke-linecap:round;stroke-linejoin:round;enable-background:new    ;}
	.st16{fill:#010101;}
	.st17{opacity:0.1222;fill:url(#path19738_1_);enable-background:new    ;}
</style>
<g id="layer6">
	<g id="g2033">
		<g id="g3712" transform="matrix(1.052632,0,0,1.285713,-1.263158,-13.42854)" class="st0">
			
				<radialGradient id="rect2801_1_" cx="6.5661" cy="16.8309" r="2.4994" gradientTransform="matrix(2.1092 0 0 -1.8 24.4032 73.5777)" gradientUnits="userSpaceOnUse">
				<stop  offset="0" style="stop-color:#010101"/>
				<stop  offset="1" style="stop-color:#010101;stop-opacity:0"/>
			</radialGradient>
			<rect id="rect2801" x="38.3" y="39.8" class="st1" width="5" height="7"/>
			
				<radialGradient id="rect3696_1_" cx="7.2205" cy="15.7246" r="2.4994" gradientTransform="matrix(-2.1092 0 0 1.8 25.4967 14.9778)" gradientUnits="userSpaceOnUse">
				<stop  offset="0" style="stop-color:#010101"/>
				<stop  offset="1" style="stop-color:#010101;stop-opacity:0"/>
			</radialGradient>
			<rect id="rect3696" x="5.3" y="39.8" class="st2" width="5" height="7"/>
			
				<linearGradient id="rect3700_1_" gradientUnits="userSpaceOnUse" x1="24.2944" y1="14.3084" x2="24.2944" y2="21.3367" gradientTransform="matrix(1.0526 0 0 -1.2857 -1.3132 65.2063)">
				<stop  offset="0" style="stop-color:#010101;stop-opacity:0"/>
				<stop  offset="0.5" style="stop-color:#010101"/>
				<stop  offset="1" style="stop-color:#010101;stop-opacity:0"/>
			</linearGradient>
			<rect id="rect3700" x="10.3" y="39.8" class="st3" width="28" height="7"/>
		</g>
	</g>
</g>
<g id="layer1">
	
		<radialGradient id="rect15391_1_" cx="34.2103" cy="16.4927" r="86.7085" gradientTransform="matrix(0.9605 0 0 -1.0411 3.950697e-02 54.0977)" gradientUnits="userSpaceOnUse">
		<stop  offset="0" style="stop-color:#FAFAFA"/>
		<stop  offset="1" style="stop-color:#BCBCBB"/>
	</radialGradient>
	
		<radialGradient id="rect15391_2_" cx="9.0741" cy="48.4835" r="37.7517" gradientTransform="matrix(0.9683 0 0 -1.0328 3.3853 54.3176)" gradientUnits="userSpaceOnUse">
		<stop  offset="0" style="stop-color:#A3A3A2"/>
		<stop  offset="1" style="stop-color:#8B8A8A"/>
	</radialGradient>
	<path id="rect15391" class="st4" d="M8,3.4l23.4,0c0,0,10.3,9.5,10.3,10.2v29.6
		c0,0.6-0.5,1.1-1.1,1.1H8c-0.6,0-1.1-0.5-1.1-1.1V4.5C6.9,3.9,7.4,3.4,8,3.4z"/>
	
		<radialGradient id="rect15660_1_" cx="8.3933" cy="44.9717" r="38.1587" gradientTransform="matrix(0.9683 0 0 -1.0328 3.3853 54.3176)" gradientUnits="userSpaceOnUse">
		<stop  offset="0" style="stop-color:#FFFFFF"/>
		<stop  offset="1" style="stop-color:#F7F8F8"/>
	</radialGradient>
	<path id="rect15660" class="st5" d="M8.1,4.3H33c0,0,7.8,8,7.8,8.1v30.7c0,0.1-0.1,0.1-0.1,0.1H8.1
		c-0.1,0-0.1-0.1-0.1-0.1V4.5C7.9,4.4,8,4.3,8.1,4.3z"/>
</g>
<g id="layer5">
	
		<radialGradient id="path5348_1_" cx="37.614" cy="39.008" r="4.2929" gradientTransform="matrix(1.7447 0 0 -1.2838 -27.3272 62.9971)" gradientUnits="userSpaceOnUse">
		<stop  offset="0" style="stop-color:#010101"/>
		<stop  offset="1" style="stop-color:#010101;stop-opacity:0"/>
	</radialGradient>
	<path id="path5348" class="st6" d="M41.3,13.6
		c-0.7-1.3-6.1-3.7-8.9-4.5c0.2,1.6-0.1,6.3-0.1,6.3C34.3,14,40.5,13.4,41.3,13.6z"/>
	
		<radialGradient id="path2210_1_" cx="26.1953" cy="43.6082" r="86.7085" gradientTransform="matrix(0.1484 1.009137e-02 1.104438e-02 -0.1624 25.3485 22.0876)" gradientUnits="userSpaceOnUse">
		<stop  offset="0" style="stop-color:#FAFAFA"/>
		<stop  offset="1" style="stop-color:#BCBCBB"/>
	</radialGradient>
	
		<radialGradient id="path2210_2_" cx="30.6734" cy="52.2514" r="37.7517" gradientTransform="matrix(0.3317 0 0 -0.3538 20.7735 28.6277)" gradientUnits="userSpaceOnUse">
		<stop  offset="0" style="stop-color:#A3A3A2"/>
		<stop  offset="1" style="stop-color:#8B8A8A"/>
	</radialGradient>
	<path id="path2210" class="st7" d="M41.7,13.5
		c0-1.4-6.4-10.2-10.2-10.1c1,0.2,1.8,6.2,0.4,9C34.6,12.3,40.7,11.6,41.7,13.5z"/>
	
		<linearGradient id="path2247_1_" gradientUnits="userSpaceOnUse" x1="36.6369" y1="15.3944" x2="37.4109" y2="14.2453" gradientTransform="matrix(-3.277938e-02 -0.9995 -0.9995 3.277938e-02 51.2957 45.3905)">
		<stop  offset="0" style="stop-color:#FFFFFF"/>
		<stop  offset="1" style="stop-color:#FFFFFF;stop-opacity:0"/>
	</linearGradient>
	<path id="path2247" class="st8" d="M39.4,11.3
		C38.7,10,35.2,6.2,33.3,5c0.2,1.4,0.5,3.7-0.1,6.2C33.2,11.2,38.6,11.1,39.4,11.3z"/>
	<g id="g4851" transform="matrix(0.928889,0,0,1,1.711111,0)" class="st9">
		<path id="rect4819" class="st10" d="M10.8,8.8h17c0.3,0,0.5,0.2,0.5,0.5l0,0
			c0,0.3-0.2,0.5-0.5,0.5h-17c-0.3,0-0.5-0.2-0.5-0.5l0,0C10.3,9,10.5,8.8,10.8,8.8z"/>
		<path id="rect4821" class="st10" d="M10.8,10.8h17c0.3,0,0.5,0.2,0.5,0.5l0,0
			c0,0.3-0.2,0.5-0.5,0.5h-17c-0.3,0-0.5-0.2-0.5-0.5l0,0C10.3,11,10.5,10.8,10.8,10.8z"/>
		<path id="rect4823" class="st10" d="M10.8,12.7h17c0.3,0,0.5,0.2,0.5,0.5l0,0
			c0,0.3-0.2,0.5-0.5,0.5h-17c-0.3,0-0.5-0.2-0.5-0.5l0,0C10.3,12.9,10.5,12.7,10.8,12.7z"/>
		<path id="rect4825" class="st10" d="M10.8,14.8h17c0.3,0,0.5,0.2,0.5,0.5l0,0
			c0,0.3-0.2,0.5-0.5,0.5h-17c-0.3,0-0.5-0.2-0.5-0.5l0,0C10.3,15.1,10.5,14.8,10.8,14.8z"/>
		<path id="rect4827" class="st10" d="M10.8,18.8h27.1c0.3,0,0.5,0.2,0.5,0.5l0,0
			c0,0.3-0.2,0.5-0.5,0.5H10.8c-0.3,0-0.5-0.2-0.5-0.5l0,0C10.3,19,10.5,18.8,10.8,18.8z"/>
		<path id="rect4829" class="st10" d="M10.8,16.8h17c0.3,0,0.5,0.2,0.5,0.5l0,0
			c0,0.3-0.2,0.5-0.5,0.5h-17c-0.3,0-0.5-0.2-0.5-0.5l0,0C10.3,17,10.5,16.8,10.8,16.8z"/>
		<path id="rect4831" class="st10" d="M10.8,20.8h27.1c0.3,0,0.5,0.2,0.5,0.5l0,0
			c0,0.3-0.2,0.5-0.5,0.5H10.8c-0.3,0-0.5-0.2-0.5-0.5l0,0C10.3,21,10.5,20.8,10.8,20.8z"/>
		<path id="rect4833" class="st10" d="M10.8,22.8h27.1c0.3,0,0.5,0.2,0.5,0.5l0,0
			c0,0.3-0.2,0.5-0.5,0.5H10.8c-0.3,0-0.5-0.2-0.5-0.5l0,0C10.3,23,10.5,22.8,10.8,22.8z"/>
		<path id="rect4835" class="st10" d="M10.8,24.8h27.1c0.3,0,0.5,0.2,0.5,0.5l0,0
			c0,0.3-0.2,0.5-0.5,0.5H10.8c-0.3,0-0.5-0.2-0.5-0.5l0,0C10.3,25,10.5,24.8,10.8,24.8z"/>
		<path id="rect4837" class="st10" d="M10.8,26.8h27.1c0.3,0,0.5,0.2,0.5,0.5l0,0
			c0,0.3-0.2,0.5-0.5,0.5H10.8c-0.3,0-0.5-0.2-0.5-0.5l0,0C10.3,27,10.5,26.8,10.8,26.8z"/>
		<path id="rect4839" class="st10" d="M10.8,28.8h27.1c0.3,0,0.5,0.2,0.5,0.5l0,0
			c0,0.3-0.2,0.5-0.5,0.5H10.8c-0.3,0-0.5-0.2-0.5-0.5l0,0C10.3,29,10.5,28.8,10.8,28.8z"/>
		<path id="rect4841" class="st10" d="M10.8,30.8h27.1c0.3,0,0.5,0.2,0.5,0.5l0,0
			c0,0.3-0.2,0.5-0.5,0.5H10.8c-0.3,0-0.5-0.2-0.5-0.5l0,0C10.3,31,10.5,30.8,10.8,30.8z"/>
		<path id="rect4843" class="st10" d="M10.8,32.8h27.1c0.3,0,0.5,0.2,0.5,0.5l0,0
			c0,0.3-0.2,0.5-0.5,0.5H10.8c-0.3,0-0.5-0.2-0.5-0.5l0,0C10.3,33,10.5,32.8,10.8,32.8z"/>
		<path id="rect4845" class="st10" d="M10.8,34.8h27.1c0.3,0,0.5,0.2,0.5,0.5l0,0
			c0,0.3-0.2,0.5-0.5,0.5H10.8c-0.3,0-0.5-0.2-0.5-0.5l0,0C10.3,35,10.5,34.8,10.8,34.8z"/>
		<path id="rect4849" class="st10" d="M10.8,36.8h12.8c0.3,0,0.5,0.2,0.5,0.5l0,0
			c0,0.3-0.2,0.5-0.5,0.5H10.8c-0.3,0-0.5-0.2-0.5-0.5l0,0C10.3,37,10.5,36.8,10.8,36.8z"/>
	</g>
</g>
<g id="layer2">
	
		<radialGradient id="path4112_1_" cx="15.4883" cy="-10.5627" r="12.2902" gradientTransform="matrix(1.1583 0 0 -0.5328 12.5679 35.5442)" gradientUnits="userSpaceOnUse">
		<stop  offset="0" style="stop-color:#010101"/>
		<stop  offset="1" style="stop-color:#010101;stop-opacity:0"/>
	</radialGradient>
	
		<path id="path4112" class="st11" d="
		M44.7,41.2c0,3.6-6.4,6.5-14.2,6.5c-7.9,0-14.2-2.9-14.2-6.5c0,0,0,0,0,0c0-3.6,6.4-6.5,14.2-6.5C38.4,34.6,44.7,37.6,44.7,41.2
		C44.7,41.2,44.7,41.2,44.7,41.2z"/>
	<g id="g2615" transform="translate(-40,0)">
		
			<path id="path19716" class="st12" d="
			M87.8,35.3c0,5-7.4,9-16.5,9c-9.1,0-16.5-4-16.5-9c0,0,0,0,0,0c0-5,7.4-9,16.5-9C80.4,26.3,87.8,30.3,87.8,35.3
			C87.8,35.3,87.8,35.3,87.8,35.3z"/>
		
			<path id="path19718" class="st13" d="
			M86.8,35.3c0,4.5-7,8.1-15.6,8.1s-15.6-3.6-15.6-8.1c0,0,0,0,0,0c0-4.5,7-8.1,15.6-8.1S86.8,30.8,86.8,35.3
			C86.8,35.3,86.8,35.3,86.8,35.3z"/>
		
			<linearGradient id="path19720_1_" gradientUnits="userSpaceOnUse" x1="137.1741" y1="-2.1344" x2="137.1741" y2="9.982" gradientTransform="matrix(0.9727 0 0 -0.9259 -62.3546 34.9677)">
			<stop  offset="0" style="stop-color:#FFFFFF"/>
			<stop  offset="1" style="stop-color:#FFFFFF;stop-opacity:0"/>
		</linearGradient>
		<path id="path19720" class="st14" d="M70.9,26.7c-8.8,0.1-15.5,3.9-15.7,8.4
			c-0.1,0.9,0.2,1.8,0.7,2.6c4-3.7,10.4-2.8,15.7-2.2c5.3,0.6,11.7,1,15.3-2.1c0,0,0,0,0,0c-1.5-3.8-8-6.6-15.8-6.6
			C71.1,26.7,71,26.7,70.9,26.7z"/>
		
			<linearGradient id="path19724_1_" gradientUnits="userSpaceOnUse" x1="130.9234" y1="29.5294" x2="129.9859" y2="6.6234" gradientTransform="matrix(1 0 0 -1 -59 52.0747)">
			<stop  offset="0" style="stop-color:#FFFFFF"/>
			<stop  offset="1" style="stop-color:#FFFFFF;stop-opacity:0.3051"/>
		</linearGradient>
		<path id="path19724" class="st15" d="M69.4,29l-1,5c0.1-1.6-1.1-2.8-2.3-2.8H62l-1.6,8.5l2,0l0.4-2.2h2.2c1.2,0,2.6-0.9,3.2-2.6
			l-0.5,2.6h2l0.9-4.8H72c0.3,0,0.5,0,0.6,0.1c0,0,0.1,0,0.1,0.1c0,0,0,0,0,0c0,0,0,0,0,0c0,0,0,0,0,0c0,0,0,0,0,0c0,0,0,0,0,0
			c0,0,0,0,0,0c0,0,0,0,0,0c0,0,0,0,0,0.1c0,0,0,0,0,0.1c0,0,0,0,0,0.1c0,0,0,0,0,0.1c0,0,0,0.1,0,0.1l-0.8,4.1h2.1l0.8-4.1
			c0.2-0.8,0-1.3-0.3-1.7c-0.5-0.5-1.3-0.6-1.9-0.6H71l0.4-2.2H69.4z M75.9,31.3l-1.6,8.5l2,0l0.4-2.2h2.2c1.3,0,2.8-1.1,3.3-3
			s-0.9-3.3-2.2-3.3H75.9z M63.7,32.8H65c0.3,0,0.6,0,0.8,0.1c0,0,0.1,0,0.1,0.1c0,0,0.1,0.1,0.1,0.1c0,0,0,0,0.1,0.1c0,0,0,0,0,0
			c0,0,0,0,0,0c0,0.1,0.1,0.1,0.1,0.2c0,0,0,0,0,0.1c0.1,0.3,0,0.7-0.1,1.2c-0.1,0.3-0.2,0.6-0.3,0.8c0,0-0.1,0-0.1,0.1
			c0,0-0.1,0.1-0.1,0.1c0,0,0,0.1-0.1,0.1c-0.4,0.3-1,0.4-1.7,0.4c-1.3,0-0.7,0-0.7,0L63.7,32.8z M77.6,32.8h1.2
			c0.4,0,0.8,0.1,1,0.3c0,0,0,0,0.1,0.1c0.1,0.1,0.1,0.1,0.1,0.2c0,0,0,0,0,0.1c0,0,0,0,0,0.1c0.1,0.3,0,0.7-0.1,1.2
			c-0.1,0.3-0.2,0.6-0.4,0.8c0,0,0,0-0.1,0.1c0,0,0,0,0,0c0,0,0,0-0.1,0.1c-0.4,0.3-1,0.4-1.8,0.4c-1.3,0-0.7,0-0.7,0L77.6,32.8z"/>
		<path id="path19732" class="st16" d="M69.4,29l-1,5c0.1-1.6-1.1-2.8-2.3-2.8H62l-1.6,8.5l2,0l0.4-2.2h2.2c1.2,0,2.6-0.9,3.2-2.6
			l-0.5,2.6h2l0.9-4.8H72c0.3,0,0.5,0,0.6,0.1c0,0,0.1,0,0.1,0.1c0,0,0,0,0,0c0,0,0,0,0,0c0,0,0,0,0,0c0,0,0,0,0,0c0,0,0,0,0,0
			c0,0,0,0,0,0c0,0,0,0,0,0c0,0,0,0,0,0.1c0,0,0,0,0,0.1c0,0,0,0,0,0.1c0,0,0,0,0,0.1c0,0,0,0.1,0,0.1l-0.8,4.1h2.1l0.8-4.1
			c0.2-0.8,0-1.3-0.3-1.7c-0.5-0.5-1.3-0.6-1.9-0.6H71l0.4-2.2H69.4z M75.9,31.3l-1.6,8.5l2,0l0.4-2.2h2.2c1.3,0,2.8-1.1,3.3-3
			s-0.9-3.3-2.2-3.3H75.9z M63.7,32.8H65c0.3,0,0.6,0,0.8,0.1c0,0,0.1,0,0.1,0.1c0,0,0.1,0.1,0.1,0.1c0,0,0,0,0.1,0.1c0,0,0,0,0,0
			c0,0,0,0,0,0c0,0.1,0.1,0.1,0.1,0.2c0,0,0,0,0,0.1c0.1,0.3,0,0.7-0.1,1.2c-0.1,0.3-0.2,0.6-0.3,0.8c0,0-0.1,0-0.1,0.1
			c0,0-0.1,0.1-0.1,0.1c0,0,0,0.1-0.1,0.1c-0.4,0.3-1,0.4-1.7,0.4c-1.3,0-0.7,0-0.7,0L63.7,32.8z M77.6,32.8h1.2
			c0.4,0,0.8,0.1,1,0.3c0,0,0,0,0.1,0.1c0.1,0.1,0.1,0.1,0.1,0.2c0,0,0,0,0,0.1c0,0,0,0,0,0.1c0.1,0.3,0,0.7-0.1,1.2
			c-0.1,0.3-0.2,0.6-0.4,0.8c0,0,0,0-0.1,0.1c0,0,0,0,0,0c0,0,0,0-0.1,0.1c-0.4,0.3-1,0.4-1.8,0.4c-1.3,0-0.7,0-0.7,0L77.6,32.8z"/>
		
			<linearGradient id="path19738_1_" gradientUnits="userSpaceOnUse" x1="137.7601" y1="-5.6261" x2="137.7601" y2="7.6873" gradientTransform="matrix(1 0 0 -1 -66 35.0868)">
			<stop  offset="0" style="stop-color:#FFFFFF"/>
			<stop  offset="1" style="stop-color:#FFFFFF;stop-opacity:0"/>
		</linearGradient>
		<path id="path19738" class="st17" d="M69.4,29.1l-1,4.9c0-1.6-1.1-2.7-2.3-2.7H62l-0.8,4.1c0.7-0.1,1.3-0.2,2-0.2l0.5-2.4H65
			c0.3,0,0.6,0,0.8,0.1c0,0,0.1,0,0.1,0c0,0,0.1,0,0.1,0.1c0,0,0.1,0,0.1,0c0,0,0,0,0,0c0,0,0,0,0,0c0,0,0,0.1,0.1,0.1
			c0,0,0,0.1,0,0.1c0,0,0,0,0,0.1c0,0,0,0,0,0c0,0,0,0.1,0,0.1c0.1,0.3,0,0.8-0.1,1.2c0,0.2-0.1,0.3-0.2,0.5c0.7,0,1.4,0.1,2.1,0.2
			c0-0.1,0.1-0.2,0.1-0.3l-0.1,0.3c0.7,0.1,1.3,0.2,2,0.2l0.5-2.8H72c0.3,0,0.5,0,0.6,0.1c0,0,0,0,0,0c0,0,0.1,0,0.1,0c0,0,0,0,0,0
			c0,0,0.1,0.1,0.1,0.1c0,0,0,0,0,0c0,0,0,0.1,0,0.1c0,0,0,0,0,0c0,0,0,0,0,0c0,0,0,0.1,0,0.1c0,0,0,0,0,0c0,0,0,0.1,0,0.1
			c0,0,0,0,0,0c0,0,0,0.1,0,0.1l-0.4,2.3c0.7,0.1,1.3,0.2,2,0.2l0.5-2.6c0.1-0.6,0.1-1-0.1-1.3c0-0.1-0.1-0.2-0.2-0.3
			c0,0-0.1-0.1-0.1-0.1c0,0,0,0-0.1-0.1c0,0,0,0,0,0c-0.5-0.4-1.2-0.5-1.8-0.5H71l0.4-2.2H69.4z M75.9,31.3l-0.9,4.8
			c2.2,0.2,4.5,0.2,6.7-0.1c0.3-0.4,0.5-0.8,0.6-1.3c0.5-1.9-0.9-3.3-2.2-3.3H75.9z M77.6,32.8h1.2c0.3,0,0.5,0,0.7,0.1
			c0,0,0.1,0,0.1,0.1c0,0,0.1,0,0.1,0.1c0,0,0.1,0,0.1,0c0,0,0,0,0,0c0,0,0,0.1,0,0.1c0,0,0,0,0,0c0,0,0,0,0,0c0,0,0,0.1,0,0.1
			c0,0,0,0,0,0.1c0.1,0.3,0.1,0.8,0,1.4c-0.1,0.3-0.2,0.5-0.3,0.7c0,0-0.1,0.1-0.1,0.2c0,0,0,0-0.1,0.1c0,0,0,0,0,0
			c-0.4,0.3-1,0.4-1.8,0.4c-1.3,0-0.7,0-0.7,0L77.6,32.8z"/>
	</g>
</g>
</svg>
