<?xml version="1.0" encoding="utf-8"?>
<svg version="1.1" id="Layer_1" xmlns="http://www.w3.org/2000/svg" xmlns:xlink="http://www.w3.org/1999/xlink" x="0px" y="0px"
	 viewBox="0 0 50 50" style="enable-background:new 0 0 50 50;" xml:space="preserve">
<path fill="#595a5c" d="M36.3,30.4c0,0-3.4,16.3-11.1,17.8l0,0h-0.4l0,0c-3.3,0-6.5-1.3-8.9-3.6l0,0
	c-3.1-3-4.4-7.4-3.3-11.6l0.7-2.8L36.3,30.4z"/>
<g id="XMLID_41_">
	<path fill="#e0a88f" d="M11.2,29.7h2.6v-8.2h-2.6c-0.6,0-1,0.5-1,1v6.1C10.1,29.3,10.6,29.7,11.2,29.7z"/>
	<path fill="#e0a88f" d="M38.4,21.5h-2.9v8.2h2.9c0.6,0,1-0.5,1-1v-6.1C39.4,22,38.9,21.5,38.4,21.5z"/>
</g>
<path fill="#424143" d="M37.4,33.1l-1.1-2.7l-4.7-0.1l0.7,2.8c1.1,4.2-0.2,8.6-3.3,11.6l0,0c-1.8,1.7-4.1,2.9-6.6,3.4
	c0.8,0.1,1.5,0.2,2.3,0.2h0.4l0,0c3.3,0,6.5-1.3,8.9-3.6l0,0C37.2,41.7,38.4,37.3,37.4,33.1z"/>
<path fill="#f2c7a1" d="M13.3,13.8v16.5l2.7,1.2c1.2,0.6,2.5,1,3.9,1.4c0.2,0.1,0.5,0,0.7-0.1c1.1-0.9,2.7-1.4,4.3-1.4
	c1.7,0,3.2,0.5,4.4,1.4c0.2,0.1,0.4,0.2,0.7,0.1c1.3-0.3,2.6-0.8,3.8-1.3l-0.1-1.2l-0.2-16.1L13.3,13.8z"/>
<path fill="#e6b694" d="M13.3,13.8L13.3,13.8v8.9c0-2.1,1.2-4.2,2.7-5.6c0.3-0.3,0.8-0.1,0.9,0.3
	c0.6,2.4,2.1,4.1,4.9,4.1h3.8c1.3,0,2.5,0,3.6,0.1c1.8,0,3.2,1.5,3.2,3.3v2.7c0,1.8-1,3.4-2.7,4.2l0,0c-0.5,0.2-1,0.4-1.5,0.6
	c0.3,0.2,0.6,0.4,0.9,0.6c0.2,0.1,0.4,0.2,0.7,0.1c1.3-0.3,2.6-0.8,3.8-1.3l2.7-1.2V15.9v-1.7L13.3,13.8z"/>
<path fill="#595a5c"  d="M18.4,2.2c-1,0-1.9,0.8-1.9,1.9v0l0,0c-3.9,0-7.1,3.2-7.1,7.1v4.8c0,2.7,1.6,3.2,3.9,4.3v-0.8
	c0-2.1,1.2-4.2,2.7-5.6c0.3-0.3,0.8-0.1,0.9,0.3c0.6,2.4,2.1,4.1,4.9,4.1h3.8c7.2,0,13.1-5.9,13.1-13.1V2.2H18.4z"/>
<g id="XMLID_32_">
	<path fill="#424143" d="M11,14.2c-0.1-0.4-0.6-0.5-0.9-0.3c-0.2,0.2-0.5,0.5-0.7,0.7v1.4c0,2.7,1.6,5,3.9,6.1v-2.6
		c0-0.6,0.1-1.2,0.3-1.8C12.2,17.1,11.4,15.9,11,14.2z"/>
	<path fill="#424143" d="M35.7,2.2v2.9c0,7.2-5.9,13.1-13.1,13.1h5.9c7.2,0,13.1-5.9,13.1-13.1V2.2H35.7z"/>
	<circle fill="#424143" cx="29.2" cy="24.1" r="0.9"/>
	<circle fill="#424143" cx="19.6" cy="24.1" r="0.9"/>
</g>
<path fill="#01010" d="M42.5,5.2V2.2c0-0.4-0.4-0.8-0.8-0.8c-0.4,0-0.8,0.4-0.8,0.8v2.9c0,6.8-5.5,12.3-12.3,12.3h-6.7
	c-1.1,0-4.5,0-4.5-6.4v-0.4c0-1.3,0-2.6,0-3.9c0-0.5,0-1,0-1.5v-1c0-0.6,0.5-1.1,1.1-1.1h19.1c0.4,0,0.8-0.4,0.8-0.8
	s-0.4-0.8-0.8-0.8H18.4c-1.2,0-2.2,0.8-2.6,1.9l-0.1,0c-0.1,0-0.3,0-0.4,0.1c-2.6,0.4-5,2.1-6.1,4.5C9.2,8,8.9,8.7,8.9,8.7
	C8.7,9.4,8.7,10,8.7,10.6c0,0.4,0,0.8-0.1,1.3c-0.1,2.6-0.3,5.5,1,8c0.2,0.4,0.7,0.6,1.1,0.3s0.6-0.7,0.3-1.1
	c-1.1-2.1-1-4.6-0.8-7.1c0-0.4,0.1-2.2,0.2-2.6c0.1-0.1,0.1-0.3,0.2-0.4c0-0.1,0.1-0.2,0.1-0.3c0,0,0,0,0,0c0.9-1.9,2.9-3.3,5-3.6
	c0,0,0,0.1,0,0.1v5.5c0,0.9,0,1.7-0.1,2.6c-0.1,0.1-0.9,0.8-1,0.8c-1.2,1.2-1.9,2.7-2.2,4.5c0,0,0,0,0,0c-0.1,0.8-0.1,1.5,0,2.2
	h-1.3c-1,0-1.8,0.8-1.8,1.8v6.1c0,1,0.8,1.8,1.8,1.8h1.2l-0.6,2.3c-1.1,4.5,0.2,9.2,3.5,12.4c2.6,2.4,5.9,3.8,9.4,3.8
	c0.1,0,0.3,0,0.4,0c3.5,0,6.9-1.3,9.4-3.8c3.3-3.2,4.7-7.9,3.5-12.4c0,0-0.9-2.3-0.9-2.3h1.2c1,0,1.8-0.8,1.8-1.8v-6.1
	c0-1-0.8-1.8-1.8-1.8h-1.3v-4.4c0-0.1,0-0.1,0-0.2C40.3,13.6,42.5,9.6,42.5,5.2z M11,28.7v-6.1c0-0.1,0.1-0.2,0.2-0.2h1.3v6.5h-1.3
	C11,28.9,11,28.8,11,28.7z M33.5,44.1c-2.3,2.2-5.2,3.3-8.3,3.3c-0.1,0-0.3,0-0.4,0c-3.1,0-6.1-1.2-8.3-3.3
	c-2.9-2.8-4.1-6.9-3.1-10.8l0.5-1.8l1.8,0.8c1.4,0.7,2.9,1.2,4.4,1.5c0.3,0.1,0.5,0,0.7-0.2c1-0.9,2.5-1.4,4.1-1.4
	c1.6,0,3.1,0.5,4.1,1.4c0.1,0.1,0.3,0.2,0.5,0.2c0.1,0,0.1,0,0.2,0c0.9-0.2,1.8-0.5,2.6-0.8c0.6-0.2,1.2-0.5,1.8-0.7l1.9-0.9
	l0.7,1.8C37.6,37.2,36.4,41.3,33.5,44.1z M38.4,22.4c0.1,0,0.2,0.1,0.2,0.2v6.1c0,0.1-0.1,0.2-0.2,0.2h-1.3v-6.5L38.4,22.4
	L38.4,22.4z M35.5,21.5v8.2v0.2l-2.2,1c-0.5,0.2-1.1,0.5-1.6,0.7c-0.7,0.2-1.3,0.4-2,0.6c-1.3-1-3-1.6-4.8-1.6
	c-1.8,0-3.5,0.5-4.8,1.6c-1.3-0.3-2.5-0.8-3.7-1.3l-2.2-1v-0.1v-7.6v-0.6c0,0,0-0.1,0-0.1c0-0.2,0-0.4,0-0.5c0-0.7,0-1.4,0-2.2
	c0.2-1.4,0.8-2.5,1.6-3.5c0.2-0.1,0.4-0.3,0.5-0.4c0,0,0,0,0,0c0.2,0.7,0.5,1.3,0.8,1.8c1,1.7,2.7,2.5,4.8,2.5h6.7
	c2.5,0,4.9-0.7,6.9-1.8L35.5,21.5L35.5,21.5L35.5,21.5z"/>
<path fill="#01010" d="M27.2,20.1c-1.8,0-3.2,1.4-3.2,3.2v4.8c0,0.4,0.4,0.8,0.8,0.8s0.8-0.4,0.8-0.8v-4.8
	c0-0.9,0.7-1.6,1.6-1.6c0.4,0,0.8-0.4,0.8-0.8C28,20.5,27.6,20.1,27.2,20.1z"/>
<circle fill="#01010" cx="29.2" cy="24.1" r="0.9"/>
<circle fill="#01010" cx="19.6" cy="24.1" r="0.9"/>
<path fill="#01010" d="M27,35.1c-0.7,0.2-1.4,0.3-2.1,0.3c-0.8,0-1.6-0.1-2.4-0.3c-0.4-0.1-0.9,0.1-1,0.5
	c-0.1,0.4,0.1,0.9,0.5,1c0.9,0.3,1.8,0.4,2.8,0.4c0,0,0.1,0,0.1,0c0.8,0,1.7-0.1,2.5-0.4c0.4-0.1,0.7-0.6,0.6-1
	C27.9,35.3,27.5,35,27,35.1z"/>
</svg>
