<?xml version="1.0" encoding="utf-8"?>
<svg version="1.1" id="Layer_1" xmlns="http://www.w3.org/2000/svg" xmlns:xlink="http://www.w3.org/1999/xlink" x="0px" y="0px"
	 viewBox="0 0 50 50" style="enable-background:new 0 0 50 50;" xml:space="preserve">
<g>
	<path fill="#c23a39" d="M48.2,12.4L44.9,12c-0.2-1-0.6-1.9-1.1-2.7l2-2.7c0.2-0.2,0.2-0.5,0-0.8L43.9,4
		c-0.2-0.2-0.6-0.2-0.8,0l-2.7,2c-0.8-0.5-1.8-0.9-2.7-1.1l-0.4-3.3C37.3,1.2,37,1,36.7,1h-2.6c-0.3,0-0.6,0.2-0.6,0.5l-0.4,3.3
		c-1,0.2-1.9,0.6-2.7,1.1l-2.7-2c-0.2-0.2-0.5-0.2-0.8,0l-1.9,1.9c-0.2,0.2-0.2,0.6,0,0.8l2,2.7c-0.5,0.9-0.9,1.8-1.1,2.7l-3.3,0.4
		c-0.3,0-0.5,0.3-0.5,0.6v2.6c0,0.3,0.2,0.6,0.5,0.6l3.3,0.4c0.2,1,0.6,1.9,1.1,2.7l-2,2.7c-0.2,0.2-0.2,0.5,0,0.8l1.9,1.9
		c0.2,0.2,0.6,0.2,0.8,0l2.7-2c0.8,0.5,1.8,0.9,2.7,1.1l0.4,3.3c0,0.3,0.3,0.5,0.6,0.5h2.6c0.3,0,0.6-0.2,0.6-0.5l0.4-3.3
		c1-0.2,1.9-0.6,2.7-1.1l2.7,2c0.2,0.2,0.5,0.2,0.8,0l1.9-1.9c0.2-0.2,0.2-0.6,0-0.8l-2-2.7c0.5-0.8,0.9-1.8,1.1-2.7l3.3-0.4
		c0.3,0,0.5-0.3,0.5-0.6V13C48.7,12.7,48.5,12.4,48.2,12.4z M35.4,21.4c-3.9,0-7.1-3.2-7.1-7.1s3.2-7.1,7.1-7.1s7.1,3.2,7.1,7.1
		c0,0,0,0,0,0C42.5,18.2,39.3,21.4,35.4,21.4z"/>
	<path fill="#383938" d="M31.9,36.3l-3.4-2c0.2-1.2,0.2-2.3,0-3.5l3.4-2c0.3-0.1,0.4-0.5,0.3-0.8L31,25.2
		c-0.1-0.3-0.5-0.5-0.8-0.4l-3.8,1c-0.7-0.9-1.5-1.8-2.5-2.5l1-3.8c0.1-0.3,0-0.7-0.4-0.8l-2.9-1.2c-0.3-0.1-0.7,0-0.8,0.3l-2,3.4
		c-1.2-0.2-2.3-0.2-3.5,0l-2-3.4c-0.1-0.3-0.5-0.4-0.8-0.3l-2.9,1.2c-0.3,0.1-0.5,0.5-0.4,0.8l1,3.8c-0.9,0.7-1.8,1.5-2.5,2.5
		l-3.8-1c-0.3-0.1-0.7,0-0.8,0.4L2.1,28c-0.1,0.3,0,0.7,0.3,0.8l3.4,2c-0.2,1.2-0.2,2.3,0,3.5l-3.4,2c-0.3,0.1-0.4,0.5-0.3,0.8
		L3.2,40c0.1,0.3,0.5,0.5,0.8,0.4l3.8-1c0.7,0.9,1.5,1.8,2.5,2.5l-1,3.8c-0.1,0.3,0,0.7,0.4,0.8l2.9,1.2c0.3,0.1,0.7,0,0.8-0.3
		l2-3.4c1.2,0.2,2.3,0.2,3.5,0l2,3.4c0.1,0.3,0.5,0.4,0.8,0.3l2.9-1.2c0.3-0.1,0.5-0.5,0.4-0.8l-1-3.8c0.9-0.7,1.8-1.5,2.5-2.5
		l3.8,1c0.3,0.1,0.7,0,0.8-0.4l1.2-2.9C32.3,36.8,32.2,36.5,31.9,36.3z M13.8,40.6c-4.4-1.8-6.5-6.9-4.7-11.3s6.9-6.5,11.3-4.7
		c4.4,1.8,6.5,6.9,4.7,11.3c0,0,0,0,0,0C23.3,40.3,18.2,42.4,13.8,40.6C13.8,40.6,13.8,40.6,13.8,40.6z"/>
</g>
</svg>
